<?xml version="1.0" encoding="UTF-8"?>
<svg width="240px" height="80px" viewBox="0 0 240 80" version="1.1" xmlns="http://www.w3.org/2000/svg" xmlns:xlink="http://www.w3.org/1999/xlink">
    <!-- Generator: Sketch 49 (51002) - http://www.bohemiancoding.com/sketch -->
    <title>Лого моб</title>
    <desc>Created with Sketch.</desc>
    <defs>
        <rect id="path-1" x="0" y="0" width="156.149425" height="1" rx="0.5"></rect>
        <linearGradient x1="0%" y1="0%" x2="92.7835284%" y2="91.8738868%" id="linearGradient-3">
            <stop stop-color="#0A006C" offset="0%"></stop>
            <stop stop-color="#6FABF8" offset="100%"></stop>
        </linearGradient>
        <path d="M25.1440613,29.027027 L19.3385057,29.027027 L17.6568966,23.9189189 L7.52720307,23.9189189 L5.80555556,29.027027 L0,29.027027 L10.3699234,0.162162162 L14.7340996,0.162162162 L25.1440613,29.027027 Z M16.1754789,19.1756757 L12.6921456,8.67567568 L9.08869732,19.1756757 L16.1754789,19.1756757 Z M44.8829502,29.027027 L39.7980843,29.027027 L39.7980843,27.0405405 C38.4901595,28.5270345 36.7685292,29.2702703 34.6331418,29.2702703 C32.4443696,29.2702703 30.7494313,28.6351415 29.5482759,27.3648649 C28.6407362,26.4189142 28.0535135,25.2432503 27.78659,23.8378378 C27.5196666,22.4324254 27.3862069,20.6351461 27.3862069,18.4459459 C27.3862069,16.283773 27.5196666,14.500007 27.78659,13.0945946 C28.0535135,11.6891822 28.6407362,10.5135182 29.5482759,9.56756757 C30.7494313,8.29729095 32.4310237,7.66216216 34.5931034,7.66216216 C36.7284909,7.66216216 38.4234292,8.36485784 39.6779693,9.77027027 L39.6779693,0.162162162 L44.8829502,0.162162162 L44.8829502,29.027027 Z M39.6779693,18.4459459 C39.6779693,16.4729631 39.4444149,14.9729781 38.9772989,13.9459459 C38.5101828,12.9189138 37.5559459,12.4054054 36.1145594,12.4054054 C35.3671738,12.4054054 34.7465861,12.5540526 34.2527778,12.8513514 C33.7589694,13.1486501 33.3986282,13.5945916 33.1717433,14.1891892 C32.9448584,14.7837868 32.7913797,15.3986455 32.7113027,16.0337838 C32.6312257,16.6689221 32.5911877,17.4729681 32.5911877,18.4459459 C32.5911877,19.4189238 32.6312257,20.2229698 32.7113027,20.8581081 C32.7913797,21.4932464 32.9448584,22.1148618 33.1717433,22.722973 C33.3986282,23.3310841 33.7589694,23.7837823 34.2527778,24.0810811 C34.7465861,24.3783799 35.3671738,24.527027 36.1145594,24.527027 C36.861945,24.527027 37.4825327,24.3783799 37.976341,24.0810811 C38.4701493,23.7837823 38.8371635,23.3378408 39.0773946,22.7432432 C39.3176257,22.1486457 39.4777774,21.5202736 39.5578544,20.8581081 C39.6379314,20.1959426 39.6779693,19.3918966 39.6779693,18.4459459 Z M67.8249042,29.027027 L62.7400383,29.027027 L62.7400383,27.0810811 C61.3787288,28.5405478 59.6437526,29.2702703 57.5350575,29.2702703 C55.4797471,29.2702703 53.8381926,28.6486549 52.6103448,27.4054054 C51.1956507,25.9729658 50.4883142,23.9729858 50.4883142,21.4054054 L50.4883142,7.90540541 L55.693295,7.90540541 L55.693295,20.6756757 C55.693295,22.0000066 56.0336173,22.9729699 56.714272,23.5945946 C57.3949268,24.2162193 58.202358,24.527027 59.13659,24.527027 C60.0975144,24.527027 60.9182916,24.2162193 61.5989464,23.5945946 C62.2796011,22.9729699 62.6199234,22.0000066 62.6199234,20.6756757 L62.6199234,7.90540541 L67.8249042,7.90540541 L67.8249042,29.027027 Z M82.5189655,29.027027 L79.5561303,29.027027 C77.5542045,29.027027 76.0394368,28.4324384 75.0117816,27.2432432 C73.9841264,26.0540481 73.4703065,24.6351434 73.4703065,22.9864865 L73.4703065,0.162162162 L78.6752874,0.162162162 L78.6752874,22.6621622 C78.6752874,23.9324388 79.289202,24.5675676 80.5170498,24.5675676 L82.5189655,24.5675676 L82.5189655,29.027027 Z M102.458046,29.027027 L97.3731801,29.027027 L97.3731801,27.2027027 C96.6524868,27.9324361 95.9117854,28.4527011 95.1510536,28.7635135 C94.3903219,29.0743259 93.422739,29.2297297 92.2482759,29.2297297 C89.926042,29.2297297 88.1510279,28.6081143 86.9231801,27.3648649 C85.7754093,26.1486426 85.2015326,24.5675773 85.2015326,22.6216216 C85.2015326,20.8378289 85.8154472,19.3716274 87.043295,18.222973 C88.2711428,17.0743186 90.0595029,16.5 92.4084291,16.5 L97.2530651,16.5 L97.2530651,15.4459459 C97.2530651,14.283778 96.9461078,13.4391918 96.3321839,12.9121622 C95.71826,12.3851325 94.7306581,12.1216216 93.3693487,12.1216216 C91.7411157,12.1216216 90.4065186,12.7297236 89.3655172,13.9459459 L86.0823755,10.6621622 C87.0966845,9.52702135 88.1576892,8.74324541 89.2654215,8.31081081 C90.3731537,7.87837622 91.8078456,7.66216216 93.5695402,7.66216216 C99.4952404,7.66216216 102.458046,10.1486238 102.458046,15.1216216 L102.458046,29.027027 Z M97.2530651,21.2432432 L97.2530651,20.1081081 L93.289272,20.1081081 C91.2339616,20.1081081 90.2063218,20.9189108 90.2063218,22.5405405 C90.2063218,24.1351431 91.2606536,24.9324324 93.3693487,24.9324324 C94.7306581,24.9324324 95.7582979,24.594598 96.4522989,23.9189189 C96.9861457,23.4594572 97.2530651,22.5675742 97.2530651,21.2432432 Z M123.318008,9.64864865 L119.394253,13.6621622 C118.56679,12.8243201 117.645918,12.4054054 116.631609,12.4054054 C115.750762,12.4054054 114.970023,12.7432399 114.289368,13.4189189 C113.608713,14.094598 113.268391,15.0540478 113.268391,16.2972973 L113.268391,29.027027 L108.06341,29.027027 L108.06341,7.90540541 L113.148276,7.90540541 L113.148276,9.93243243 C113.682123,9.28378054 114.422824,8.74324541 115.370402,8.31081081 C116.31798,7.87837622 117.325601,7.66216216 118.393295,7.66216216 C120.368528,7.66216216 122.010083,8.3243177 123.318008,9.64864865 Z M131.485824,29.027027 L126.280843,29.027027 L126.280843,8.51351351 L131.485824,8.51351351 L131.485824,29.027027 Z M131.525862,4.2972973 L126.200766,4.2972973 L126.200766,0 L131.525862,0 L131.525862,4.2972973 Z M153.066475,29.027027 L147.981609,29.027027 L147.981609,27.2027027 C147.260916,27.9324361 146.520215,28.4527011 145.759483,28.7635135 C144.998751,29.0743259 144.031168,29.2297297 142.856705,29.2297297 C140.534471,29.2297297 138.759457,28.6081143 137.531609,27.3648649 C136.383838,26.1486426 135.809962,24.5675773 135.809962,22.6216216 C135.809962,20.8378289 136.423876,19.3716274 137.651724,18.222973 C138.879572,17.0743186 140.667932,16.5 143.016858,16.5 L147.861494,16.5 L147.861494,15.4459459 C147.861494,14.283778 147.554537,13.4391918 146.940613,12.9121622 C146.326689,12.3851325 145.339087,12.1216216 143.977778,12.1216216 C142.349545,12.1216216 141.014948,12.7297236 139.973946,13.9459459 L136.690805,10.6621622 C137.705114,9.52702135 138.766118,8.74324541 139.873851,8.31081081 C140.981583,7.87837622 142.416275,7.66216216 144.177969,7.66216216 C150.103669,7.66216216 153.066475,10.1486238 153.066475,15.1216216 L153.066475,29.027027 Z M147.861494,21.2432432 L147.861494,20.1081081 L143.897701,20.1081081 C141.842391,20.1081081 140.814751,20.9189108 140.814751,22.5405405 C140.814751,24.1351431 141.869083,24.9324324 143.977778,24.9324324 C145.339087,24.9324324 146.366727,24.594598 147.060728,23.9189189 C147.594575,23.4594572 147.861494,22.5675742 147.861494,21.2432432 Z" id="path-4"></path>
        <linearGradient x1="0%" y1="0%" x2="99.6531322%" y2="98.6761416%" id="linearGradient-6">
            <stop stop-color="#0A006C" offset="0%"></stop>
            <stop stop-color="#6FABF8" offset="100%"></stop>
        </linearGradient>
    </defs>
    <g id="Лого-моб" stroke="none" stroke-width="1" fill="none" fill-rule="evenodd">
        <g id="лого" transform="translate(15.000000, 25.000000)">
            <g id="2" transform="translate(183.375479, 3.243243)" stroke="#6FACF8" stroke-width="0.5">
                <ellipse id="Oval-3-Copy-6" transform="translate(12.431352, 13.373516) rotate(-270.000000) translate(-12.431352, -13.373516) " cx="12.4313518" cy="13.3735159" rx="11.8465679" ry="2.22237684"></ellipse>
                <ellipse id="Oval-3-Copy-7" transform="translate(12.487181, 13.316642) rotate(-180.000000) translate(-12.487181, -13.316642) " cx="12.4871809" cy="13.3166418" rx="11.8465679" ry="2.22237684"></ellipse>
                <ellipse id="Oval-3-Copy-8" transform="translate(12.481825, 13.368059) rotate(-225.000000) translate(-12.481825, -13.368059) " cx="12.4818247" cy="13.3680595" rx="11.8465679" ry="2.22237684"></ellipse>
                <ellipse id="Oval-3-Copy-9" transform="translate(12.481825, 13.368059) rotate(-315.000000) translate(-12.481825, -13.368059) " cx="12.4818247" cy="13.3680595" rx="11.8465679" ry="2.22237684"></ellipse>
                <ellipse id="Oval-5" cx="12.6875457" cy="13.0824091" rx="12.0469327" ry="12.4298053"></ellipse>
                <ellipse id="Oval-6" fill="#FFFFFF" cx="12.4076304" cy="0.904455689" rx="1" ry="1"></ellipse>
                <ellipse id="Oval-6-Copy" fill="#FFFFFF" cx="12.4076304" cy="25.703401" rx="1" ry="1"></ellipse>
                <ellipse id="Oval-6-Copy-2" fill="#FFFFFF" cx="0.876595933" cy="13.3039283" rx="1" ry="1"></ellipse>
                <ellipse id="Oval-6-Copy-3" fill="#FFFFFF" cx="24.5792779" cy="13.3039283" rx="1" ry="1"></ellipse>
                <ellipse id="Oval-6-Copy-4" fill="#FFFFFF" cx="20.7355998" cy="21.787778" rx="1" ry="1"></ellipse>
                <ellipse id="Oval-6-Copy-11" fill="#FFFFFF" cx="3.73559976" cy="4.78777804" rx="1" ry="1"></ellipse>
                <ellipse id="Oval-6-Copy-7" fill="#FFFFFF" cx="4.07966107" cy="21.787778" rx="1" ry="1"></ellipse>
                <ellipse id="Oval-6-Copy-12" fill="#FFFFFF" cx="21.0796611" cy="4.78777804" rx="1" ry="1"></ellipse>
                <ellipse id="Oval-6-Copy-8" fill="#FFFFFF" cx="12.31412" cy="13.232553" rx="2.70492459" ry="2.79089184"></ellipse>
            </g>
            <g id="линия" transform="translate(26.425287, 16.216216)">
                <mask id="mask-2" fill="white">
                    <use xlink:href="#path-1"></use>
                </mask>
                <use id="Mask" fill="#D8D8D8" xlink:href="#path-1"></use>
                <rect id="Rectangle-6-Copy-4" fill="url(#linearGradient-3)" mask="url(#mask-2)" x="-2.40229885" y="-14.5945946" width="158.551724" height="42.1621622"></rect>
            </g>
            <g id="слово" transform="translate(26.425287, 0.000000)">
                <mask id="mask-5" fill="white">
                    <use xlink:href="#path-4"></use>
                </mask>
                <use id="Mask" fill="#000000" xlink:href="#path-4"></use>
                <rect id="Rectangle-6-Copy-9" fill="url(#linearGradient-6)" mask="url(#mask-5)" x="0.800766284" y="-4.86486486" width="152.94636" height="38.9189189"></rect>
            </g>
            <g id="1" transform="translate(0.000000, 3.243243)" stroke="#120D77" stroke-width="0.5">
                <ellipse id="Oval-3-Copy-6" transform="translate(12.431352, 13.373516) rotate(-270.000000) translate(-12.431352, -13.373516) " cx="12.4313518" cy="13.3735159" rx="11.8465679" ry="2.22237684"></ellipse>
                <ellipse id="Oval-3-Copy-7" transform="translate(12.487181, 13.316642) rotate(-180.000000) translate(-12.487181, -13.316642) " cx="12.4871809" cy="13.3166418" rx="11.8465679" ry="2.22237684"></ellipse>
                <ellipse id="Oval-3-Copy-8" transform="translate(12.481825, 13.368059) rotate(-225.000000) translate(-12.481825, -13.368059) " cx="12.4818247" cy="13.3680595" rx="11.8465679" ry="2.22237684"></ellipse>
                <ellipse id="Oval-3-Copy-9" transform="translate(12.481825, 13.368059) rotate(-315.000000) translate(-12.481825, -13.368059) " cx="12.4818247" cy="13.3680595" rx="11.8465679" ry="2.22237684"></ellipse>
                <ellipse id="Oval-5" cx="12.6875457" cy="13.0824091" rx="12.0469327" ry="12.4298053"></ellipse>
                <ellipse id="Oval-6" fill="#FFFFFF" cx="12.4076304" cy="0.904455689" rx="1" ry="1"></ellipse>
                <ellipse id="Oval-6-Copy" fill="#FFFFFF" cx="12.4076304" cy="25.703401" rx="1" ry="1"></ellipse>
                <ellipse id="Oval-6-Copy-2" fill="#FFFFFF" cx="0.876595933" cy="13.3039283" rx="1" ry="1"></ellipse>
                <ellipse id="Oval-6-Copy-3" fill="#FFFFFF" cx="24.5792779" cy="13.3039283" rx="1" ry="1"></ellipse>
                <ellipse id="Oval-6-Copy-4" fill="#FFFFFF" cx="20.7355998" cy="21.787778" rx="1" ry="1"></ellipse>
                <ellipse id="Oval-6-Copy-9" fill="#FFFFFF" cx="3.73559976" cy="4.78777804" rx="1" ry="1"></ellipse>
                <ellipse id="Oval-6-Copy-7" fill="#FFFFFF" cx="4.07966107" cy="21.787778" rx="1" ry="1"></ellipse>
                <ellipse id="Oval-6-Copy-10" fill="#FFFFFF" cx="21.0796611" cy="4.78777804" rx="1" ry="1"></ellipse>
                <ellipse id="Oval-6-Copy-8" fill="#FFFFFF" cx="12.31412" cy="13.232553" rx="2.70492459" ry="2.79089184"></ellipse>
            </g>
        </g>
    </g>
</svg>