<?xml version="1.0" encoding="UTF-8"?>
<svg style="background:#FFFFFF" version="1.1" viewBox="0 0 40 40" xmlns="http://www.w3.org/2000/svg" xmlns:xlink="http://www.w3.org/1999/xlink">
<title>inst</title>
<desc>Created with Sketch.</desc>
<defs>
<linearGradient id="c" x1="64.216%" x2="15.465%" y1="39.551%" y2="100%">
<stop stop-color="#A800B7" offset="0"/>
<stop stop-color="#EDF000" offset="1"/>
</linearGradient>
<polygon id="a" points="3.9808e-5 0.02924 18.163 0.02924 18.163 18.505 3.9808e-5 18.505"/>
</defs>
<g fill="none" fill-rule="evenodd">
<g transform="translate(6 5)">
<g transform="translate(.069304 .070505)">
<ellipse cx="14.675" cy="14.929" rx="13.947" ry="14.189" fill="url(#c)"/>
<g transform="translate(5.5789 5.6757)">
<mask id="b" fill="white">
<use xlink:href="#a"/>
</mask>
<path d="m9.0818 0.029159c-2.4665 0-2.7757 0.01057-3.7444 0.055604-0.9667 0.044912-1.6269 0.20107-2.2045 0.42944-0.59724 0.2361-1.1037 0.55203-1.6086 1.0657-0.50488 0.51364-0.81543 1.0289-1.0475 1.6365-0.2246 0.58771-0.3781 1.2593-0.42216 2.2427-0.044227 0.98544-0.054656 1.3-0.054656 3.8093 0 2.5093 0.01043 2.8239 0.054656 3.8093 0.044067 0.98342 0.19757 1.655 0.42216 2.2427 0.23204 0.60755 0.54258 1.1229 1.0475 1.6365 0.50488 0.51364 1.0114 0.82956 1.6086 1.0657 0.57761 0.22837 1.2378 0.38453 2.2045 0.42944 0.96865 0.044953 1.2779 0.055604 3.7444 0.055604 2.4665 0 2.7758-0.010651 3.7444-0.055604 0.96666-0.044912 1.6268-0.20107 2.2045-0.42944 0.59724-0.2361 1.1037-0.55203 1.6086-1.0657 0.50488-0.51364 0.81543-1.0289 1.0475-1.6365 0.22456-0.58771 0.37806-1.2593 0.42216-2.2427 0.044227-0.98544 0.054616-1.3 0.054616-3.8093 0-2.5092-0.01039-2.8238-0.054616-3.8093-0.044107-0.98342-0.19761-1.655-0.42216-2.2427-0.23208-0.60755-0.54262-1.1229-1.0475-1.6365-0.50488-0.51364-1.0113-0.82956-1.6086-1.0657-0.57765-0.22837-1.2378-0.38453-2.2045-0.42944-0.96865-0.045034-1.278-0.055604-3.7444-0.055604m0 1.6647c2.4249 0 2.7121 0.0093956 3.6698 0.053822 0.88545 0.041106 1.3663 0.19168 1.6863 0.31815 0.42395 0.16762 0.72649 0.36784 1.0442 0.69114 0.31787 0.32334 0.51468 0.63108 0.67936 1.0623 0.12432 0.32556 0.27233 0.81482 0.31273 1.7156 0.043669 0.9743 0.052944 1.2665 0.052944 3.7334 0 2.4671-0.0092752 2.7592-0.052944 3.7334-0.040405 0.90084-0.18841 1.3901-0.31273 1.7157-0.16469 0.43122-0.3615 0.73901-0.67936 1.0623-0.31775 0.3233-0.62029 0.52352-1.0442 0.6911-0.32002 0.12652-0.8009 0.27709-1.6863 0.31811-0.95754 0.044507-1.2447 0.053862-3.6698 0.053862-2.4251 0-2.7123-0.0093551-3.6698-0.053862-0.88541-0.041025-1.3663-0.1916-1.6863-0.31811-0.42391-0.16758-0.72645-0.3678-1.0442-0.6911-0.31775-0.32334-0.51456-0.63112-0.67932-1.0623-0.12436-0.32556-0.27233-0.81482-0.31277-1.7157-0.043629-0.97422-0.052905-1.2664-0.052905-3.7334 0-2.467 0.0092752-2.7591 0.052905-3.7334 0.040445-0.90076 0.18841-1.39 0.31277-1.7156 0.16476-0.43126 0.36158-0.73901 0.67932-1.0623 0.31779-0.3233 0.62033-0.52352 1.0442-0.69114 0.32002-0.12648 0.80094-0.27705 1.6863-0.31815 0.9577-0.044426 1.2449-0.053822 3.6698-0.053822" fill="#fff" mask="url(#b)"/>
</g>
<path d="m14.661 18.024c-1.6719 0-3.0273-1.3788-3.0273-3.0798 0-1.7009 1.3554-3.0797 3.0273-3.0797 1.6719 0 3.0273 1.3788 3.0273 3.0797 0 1.7009-1.3553 3.0798-3.0273 3.0798m0-7.8242c-2.5756 0-4.6636 2.1242-4.6636 4.7444 0 2.6203 2.088 4.7445 4.6636 4.7445 2.5756 0 4.6636-2.1241 4.6636-4.7445 0-2.6202-2.088-4.7444-4.6636-4.7444" fill="#fff"/>
<path d="m20.598 10.012c0 0.61229-0.48793 1.1087-1.0898 1.1087-0.60186 0-1.0898-0.49643-1.0898-1.1087 0-0.61233 0.48797-1.1087 1.0898-1.1087 0.6019 0 1.0898 0.49639 1.0898 1.1087" fill="#fff"/>
</g>
</g>
</g>
</svg>
