<?xml version="1.0" encoding="UTF-8"?>
<svg style="background:transparent" version="1.1" viewBox="0 0 430 430" xmlns="http://www.w3.org/2000/svg">
<title>паттерн</title>
<desc>Created with Sketch.</desc>
<g fill="none" fill-rule="evenodd">
<g transform="translate(4 5)" stroke="#74B4FF" stroke-width=".5">
<g transform="translate(211.44 210.34) rotate(22) translate(-163 -161)">
<g transform="translate(163 104) rotate(-90) translate(-103.75 -162.75)">
<ellipse transform="translate(46.973 48.174) rotate(90) translate(-46.973 -48.174)" cx="46.973" cy="48.174" rx="43.737" ry="8.0446"/>
<ellipse transform="translate(46.973 48.174) rotate(180) translate(-46.973 -48.174)" cx="46.973" cy="48.174" rx="43.737" ry="8.0446"/>
<ellipse transform="translate(46.973 48.174) rotate(135) translate(-46.973 -48.174)" cx="46.973" cy="48.174" rx="43.737" ry="8.0446"/>
<ellipse transform="translate(46.973 48.174) rotate(45) translate(-46.973 -48.174)" cx="46.973" cy="48.174" rx="43.737" ry="8.0446"/>
<ellipse cx="47.066" cy="48.174" rx="44.476" ry="44.994"/>
<ellipse cx="47.066" cy="3.274" rx="3.2363" ry="3.274" fill="transparent"/>
<ellipse cx="47.066" cy="93.075" rx="3.2363" ry="3.274" fill="transparent"/>
<ellipse cx="3.2363" cy="48.174" rx="3.2363" ry="3.274" fill="transparent"/>
<ellipse cx="90.71" cy="48.174" rx="3.2363" ry="3.274" fill="transparent"/>
<ellipse cx="77.949" cy="79.605" rx="3.2363" ry="3.274" fill="transparent"/>
<ellipse cx="15.627" cy="16.183" rx="3.2363" ry="3.274" fill="transparent"/>
<ellipse cx="77.949" cy="16.183" rx="3.2363" ry="3.274" fill="transparent"/>
<ellipse cx="15.627" cy="79.605" rx="3.2363" ry="3.274" fill="transparent"/>
<ellipse cx="46.973" cy="48.268" rx="9.9864" ry="10.103" fill="transparent"/>
<g transform="translate(113.11 114.38)">
<ellipse transform="translate(46.973 48.174) rotate(90) translate(-46.973 -48.174)" cx="46.973" cy="48.174" rx="43.737" ry="8.0446"/>
<ellipse transform="translate(46.973 48.174) rotate(180) translate(-46.973 -48.174)" cx="46.973" cy="48.174" rx="43.737" ry="8.0446"/>
<ellipse transform="translate(46.973 48.174) rotate(135) translate(-46.973 -48.174)" cx="46.973" cy="48.174" rx="43.737" ry="8.0446"/>
<ellipse transform="translate(46.973 48.174) rotate(45) translate(-46.973 -48.174)" cx="46.973" cy="48.174" rx="43.737" ry="8.0446"/>
<ellipse cx="47.066" cy="48.174" rx="44.476" ry="44.994"/>
<ellipse cx="47.066" cy="3.274" rx="3.2363" ry="3.274" fill="transparent"/>
<ellipse cx="47.066" cy="93.075" rx="3.2363" ry="3.274" fill="transparent"/>
<ellipse cx="3.2363" cy="48.174" rx="3.2363" ry="3.274" fill="transparent"/>
<ellipse cx="90.71" cy="48.174" rx="3.2363" ry="3.274" fill="transparent"/>
<ellipse cx="77.949" cy="79.605" rx="3.2363" ry="3.274" fill="transparent"/>
<ellipse cx="15.627" cy="16.183" rx="3.2363" ry="3.274" fill="transparent"/>
<ellipse cx="77.949" cy="16.183" rx="3.2363" ry="3.274" fill="transparent"/>
<ellipse cx="15.627" cy="79.605" rx="3.2363" ry="3.274" fill="transparent"/>
<ellipse cx="46.973" cy="48.268" rx="9.9864" ry="10.103" fill="transparent"/>
</g>
<g transform="translate(0 228.75)">
<ellipse transform="translate(46.973 48.174) rotate(90) translate(-46.973 -48.174)" cx="46.973" cy="48.174" rx="43.737" ry="8.0446"/>
<ellipse transform="translate(46.973 48.174) rotate(180) translate(-46.973 -48.174)" cx="46.973" cy="48.174" rx="43.737" ry="8.0446"/>
<ellipse transform="translate(46.973 48.174) rotate(135) translate(-46.973 -48.174)" cx="46.973" cy="48.174" rx="43.737" ry="8.0446"/>
<ellipse transform="translate(46.973 48.174) rotate(45) translate(-46.973 -48.174)" cx="46.973" cy="48.174" rx="43.737" ry="8.0446"/>
<ellipse cx="47.066" cy="48.174" rx="44.476" ry="44.994"/>
<ellipse cx="47.066" cy="3.274" rx="3.2363" ry="3.274" fill="transparent"/>
<ellipse cx="47.066" cy="93.075" rx="3.2363" ry="3.274" fill="transparent"/>
<ellipse cx="3.2363" cy="48.174" rx="3.2363" ry="3.274" fill="transparent"/>
<ellipse cx="90.71" cy="48.174" rx="3.2363" ry="3.274" fill="transparent"/>
<ellipse cx="77.949" cy="79.605" rx="3.2363" ry="3.274" fill="transparent"/>
<ellipse cx="15.627" cy="16.183" rx="3.2363" ry="3.274" fill="transparent"/>
<ellipse cx="77.949" cy="16.183" rx="3.2363" ry="3.274" fill="transparent"/>
<ellipse cx="15.627" cy="79.605" rx="3.2363" ry="3.274" fill="transparent"/>
<ellipse cx="46.973" cy="48.268" rx="9.9864" ry="10.103" fill="transparent"/>
</g>
<path d="m86.22 87.335l34.134 34.329" stroke-linecap="round"/>
<path transform="translate(102.6 219.43) scale(-1 1) translate(-102.6 -219.43)" d="m85.602 202.33l34.134 34.329" stroke-linecap="round"/>
</g>
<g transform="translate(162 260.5) scale(1 -1) rotate(-90) translate(-61.25 -74.75)">
<g transform="translate(28.042 27.348)">
<ellipse transform="translate(46.867 48.016) rotate(90) translate(-46.867 -48.016)" cx="46.867" cy="48.016" rx="43.638" ry="8.0182"/>
<ellipse transform="translate(46.867 48.016) rotate(180) translate(-46.867 -48.016)" cx="46.867" cy="48.016" rx="43.638" ry="8.0182"/>
<ellipse transform="translate(46.867 48.016) rotate(135) translate(-46.867 -48.016)" cx="46.867" cy="48.016" rx="43.638" ry="8.0182"/>
<ellipse transform="translate(46.867 48.016) rotate(45) translate(-46.867 -48.016)" cx="46.867" cy="48.016" rx="43.638" ry="8.0182"/>
<ellipse cx="46.959" cy="48.016" rx="44.376" ry="44.846"/>
<ellipse cx="46.959" cy="3.2632" rx="3.229" ry="3.2632" fill="transparent"/>
<ellipse cx="46.959" cy="92.768" rx="3.229" ry="3.2632" fill="transparent"/>
<ellipse cx="3.229" cy="48.016" rx="3.229" ry="3.2632" fill="transparent"/>
<ellipse cx="90.504" cy="48.016" rx="3.229" ry="3.2632" fill="transparent"/>
<ellipse cx="77.773" cy="79.343" rx="3.229" ry="3.2632" fill="transparent"/>
<ellipse cx="15.591" cy="16.13" rx="3.229" ry="3.2632" fill="transparent"/>
<ellipse cx="77.773" cy="16.13" rx="3.229" ry="3.2632" fill="transparent"/>
<ellipse cx="15.591" cy="79.343" rx="3.229" ry="3.2632" fill="transparent"/>
<ellipse cx="46.867" cy="48.109" rx="9.9638" ry="10.069" fill="transparent"/>
</g>
<path d="m1.2171 0.39749l34.056 34.216" stroke-linecap="round"/>
<path transform="translate(17.559 132.05) scale(-1 1) translate(-17.559 -132.05)" d="m0.60044 115.02l34.056 34.216" stroke-linecap="round"/>
</g>
</g>
</g>
</g>
</svg>
