<svg width="40" height="40" xmlns="http://www.w3.org/2000/svg" xmlns:xlink="http://www.w3.org/1999/xlink" style="background:#fff"><defs><linearGradient x1="64.216%" y1="39.551%" x2="15.465%" y2="100%" id="a"><stop stop-color="#A800B7" offset="0%"/><stop stop-color="#EDF000" offset="100%"/></linearGradient><path id="b" d="M0 .03h18.163v18.475H0V.03z"/></defs><g transform="translate(6.07 5.07)" fill="none" fill-rule="evenodd"><ellipse fill="url(#a)" cx="14.675" cy="14.929" rx="13.947" ry="14.189"/><g transform="translate(5.579 5.676)"><mask id="c" fill="#fff"><use xlink:href="#b"/></mask><path d="M9.082.03c-2.467 0-2.776.01-3.745.055-.966.045-1.626.2-2.204.43A4.444 4.444 0 001.524 1.58 4.537 4.537 0 00.477 3.216C.252 3.804.099 4.476.055 5.46.01 6.445 0 6.76 0 9.27c0 2.509.01 2.823.055 3.809.044.983.197 1.655.422 2.242a4.537 4.537 0 001.047 1.637c.505.514 1.012.83 1.609 1.066.578.228 1.238.384 2.204.429.97.045 1.278.056 3.745.056 2.466 0 2.776-.011 3.744-.056.967-.045 1.627-.201 2.205-.43a4.444 4.444 0 001.608-1.065 4.538 4.538 0 001.048-1.637c.224-.587.378-1.259.422-2.242.044-.986.055-1.3.055-3.81 0-2.509-.01-2.823-.055-3.809-.044-.983-.198-1.655-.422-2.243a4.538 4.538 0 00-1.048-1.636A4.444 4.444 0 0015.031.514c-.578-.228-1.238-.384-2.205-.43C11.858.04 11.548.03 9.082.03m0 1.665c2.425 0 2.712.01 3.67.054.885.04 1.366.191 1.686.318a2.81 2.81 0 011.044.691c.318.323.515.631.68 1.062.124.326.272.815.312 1.716.044.974.053 1.266.053 3.733s-.01 2.76-.053 3.734c-.04.9-.188 1.39-.312 1.715a2.867 2.867 0 01-.68 1.063c-.318.323-.62.523-1.044.69-.32.127-.801.278-1.686.319-.958.045-1.245.054-3.67.054s-2.712-.01-3.67-.054c-.885-.041-1.366-.192-1.686-.318a2.81 2.81 0 01-1.045-.691 2.87 2.87 0 01-.679-1.063c-.124-.325-.272-.814-.313-1.715-.043-.974-.053-1.267-.053-3.734s.01-2.759.053-3.733c.04-.9.189-1.39.313-1.716.165-.43.362-.739.68-1.062a2.81 2.81 0 011.044-.691c.32-.127.8-.277 1.686-.318.958-.045 1.245-.054 3.67-.054" fill="#FFF" mask="url(#c)"/></g><path d="M14.66 18.024c-1.671 0-3.027-1.379-3.027-3.08 0-1.7 1.356-3.08 3.028-3.08s3.027 1.38 3.027 3.08c0 1.701-1.355 3.08-3.027 3.08m0-7.824c-2.576 0-4.664 2.124-4.664 4.744 0 2.62 2.088 4.745 4.664 4.745 2.575 0 4.663-2.125 4.663-4.745S17.236 10.2 14.661 10.2M20.598 10.012a1.1 1.1 0 01-1.09 1.109 1.1 1.1 0 01-1.09-1.109 1.1 1.1 0 011.09-1.109 1.1 1.1 0 011.09 1.11" fill="#FFF"/></g></svg>