<svg width="300" height="80" xmlns="http://www.w3.org/2000/svg" xmlns:xlink="http://www.w3.org/1999/xlink" style="background:0 0"><defs><linearGradient x1="0%" y1="0%" x2="92.784%" y2="91.874%" id="b"><stop stop-color="#0A006C" offset="0%"/><stop stop-color="#6FABF8" offset="100%"/></linearGradient><linearGradient x1="0%" y1="0%" x2="99.653%" y2="98.676%" id="e"><stop stop-color="#0A006C" offset="0%"/><stop stop-color="#6FABF8" offset="100%"/></linearGradient><rect id="a" x="0" y="0" width="195" height="1" rx=".5"/><path d="M31.4 35.8h-7.25l-2.1-6.3H9.4l-2.15 6.3H0L12.95.2h5.45l13 35.6zM20.2 23.65L15.85 10.7l-4.5 12.95h8.85zM56.05 35.8H49.7v-2.45c-1.633 1.833-3.783 2.75-6.45 2.75-2.733 0-4.85-.783-6.35-2.35-1.133-1.167-1.867-2.617-2.2-4.35-.333-1.733-.5-3.95-.5-6.65 0-2.667.167-4.867.5-6.6.333-1.733 1.067-3.183 2.2-4.35 1.5-1.567 3.6-2.35 6.3-2.35 2.667 0 4.783.867 6.35 2.6V.2h6.5v35.6zm-6.5-13.05c0-2.433-.292-4.283-.875-5.55-.583-1.267-1.775-1.9-3.575-1.9-.933 0-1.708.183-2.325.55-.617.367-1.067.917-1.35 1.65a9.696 9.696 0 00-.575 2.275c-.1.783-.15 1.775-.15 2.975 0 1.2.05 2.192.15 2.975.1.783.292 1.55.575 2.3.283.75.733 1.308 1.35 1.675.617.367 1.392.55 2.325.55.933 0 1.708-.183 2.325-.55.617-.367 1.075-.917 1.375-1.65a9 9 0 00.6-2.325c.1-.817.15-1.808.15-2.975zM84.7 35.8h-6.35v-2.4c-1.7 1.8-3.867 2.7-6.5 2.7-2.567 0-4.617-.767-6.15-2.3-1.767-1.767-2.65-4.233-2.65-7.4V9.75h6.5V25.5c0 1.633.425 2.833 1.275 3.6.85.767 1.858 1.15 3.025 1.15 1.2 0 2.225-.383 3.075-1.15.85-.767 1.275-1.967 1.275-3.6V9.75h6.5V35.8zm18.35 0h-3.7c-2.5 0-4.392-.733-5.675-2.2-1.283-1.467-1.925-3.217-1.925-5.25V.2h6.5v27.75c0 1.567.767 2.35 2.3 2.35h2.5v5.5zm24.9 0h-6.35v-2.25c-.9.9-1.825 1.542-2.775 1.925s-2.158.575-3.625.575c-2.9 0-5.117-.767-6.65-2.3-1.433-1.5-2.15-3.45-2.15-5.85 0-2.2.767-4.008 2.3-5.425 1.533-1.417 3.767-2.125 6.7-2.125h6.05v-1.3c0-1.433-.383-2.475-1.15-3.125-.767-.65-2-.975-3.7-.975-2.033 0-3.7.75-5 2.25l-4.1-4.05c1.267-1.4 2.592-2.367 3.975-2.9 1.383-.533 3.175-.8 5.375-.8 7.4 0 11.1 3.067 11.1 9.2V35.8zm-6.5-9.6v-1.4h-4.95c-2.567 0-3.85 1-3.85 3 0 1.967 1.317 2.95 3.95 2.95 1.7 0 2.983-.417 3.85-1.25.667-.567 1-1.667 1-3.3zM154 11.9l-4.9 4.95c-1.033-1.033-2.183-1.55-3.45-1.55-1.1 0-2.075.417-2.925 1.25-.85.833-1.275 2.017-1.275 3.55v15.7h-6.5V9.75h6.35v2.5c.667-.8 1.592-1.467 2.775-2a9.081 9.081 0 013.775-.8c2.467 0 4.517.817 6.15 2.45zm10.2 23.9h-6.5V10.5h6.5v25.3zm.05-30.5h-6.65V0h6.65v5.3zm26.9 30.5h-6.35v-2.25c-.9.9-1.825 1.542-2.775 1.925s-2.158.575-3.625.575c-2.9 0-5.117-.767-6.65-2.3-1.433-1.5-2.15-3.45-2.15-5.85 0-2.2.767-4.008 2.3-5.425 1.533-1.417 3.767-2.125 6.7-2.125h6.05v-1.3c0-1.433-.383-2.475-1.15-3.125-.767-.65-2-.975-3.7-.975-2.033 0-3.7.75-5 2.25l-4.1-4.05c1.267-1.4 2.592-2.367 3.975-2.9 1.383-.533 3.175-.8 5.375-.8 7.4 0 11.1 3.067 11.1 9.2V35.8zm-6.5-9.6v-1.4h-4.95c-2.567 0-3.85 1-3.85 3 0 1.967 1.317 2.95 3.95 2.95 1.7 0 2.983-.417 3.85-1.25.667-.567 1-1.667 1-3.3z" id="d"/></defs><g fill="none" fill-rule="evenodd"><g transform="translate(250 26)" stroke="#6FACF8" stroke-width=".616"><ellipse transform="rotate(90 15.524 16.494)" cx="15.524" cy="16.494" rx="14.794" ry="2.741"/><ellipse transform="rotate(-180 15.594 16.424)" cx="15.594" cy="16.424" rx="14.794" ry="2.741"/><ellipse transform="rotate(135 15.587 16.487)" cx="15.587" cy="16.487" rx="14.794" ry="2.741"/><ellipse transform="rotate(45 15.587 16.487)" cx="15.587" cy="16.487" rx="14.794" ry="2.741"/><ellipse cx="15.844" cy="16.135" rx="15.044" ry="15.33"/><ellipse fill="transparent" cx="15.495" cy="1.115" rx="1.095" ry="1.115"/><ellipse fill="transparent" cx="15.495" cy="31.701" rx="1.095" ry="1.115"/><ellipse fill="transparent" cx="1.095" cy="16.408" rx="1.095" ry="1.115"/><ellipse fill="transparent" cx="30.695" cy="16.408" rx="1.095" ry="1.115"/><ellipse fill="transparent" cx="25.895" cy="26.872" rx="1.095" ry="1.115"/><ellipse fill="transparent" cx="5.095" cy="5.14" rx="1.095" ry="1.115"/><ellipse fill="transparent" cx="25.895" cy="5.14" rx="1.095" ry="1.115"/><ellipse fill="transparent" cx="5.095" cy="26.872" rx="1.095" ry="1.115"/><ellipse fill="transparent" cx="15.378" cy="16.32" rx="3.378" ry="3.442"/></g><g transform="translate(54 42)"><mask id="c" fill="#fff"><use xlink:href="#a"/></mask><use fill="#D8D8D8" xlink:href="#a"/><path fill="url(#b)" mask="url(#c)" d="M-3-18h198v52H-3z"/></g><g transform="translate(54 22)"><mask id="f" fill="#fff"><use xlink:href="#d"/></mask><use fill="#000" xlink:href="#d"/><path fill="url(#e)" mask="url(#f)" d="M1-6h191v48H1z"/></g><g transform="translate(21 26)" stroke="#120D77" stroke-width=".616"><ellipse transform="rotate(90 15.524 16.494)" cx="15.524" cy="16.494" rx="14.794" ry="2.741"/><ellipse transform="rotate(-180 15.594 16.424)" cx="15.594" cy="16.424" rx="14.794" ry="2.741"/><ellipse transform="rotate(135 15.587 16.487)" cx="15.587" cy="16.487" rx="14.794" ry="2.741"/><ellipse transform="rotate(45 15.587 16.487)" cx="15.587" cy="16.487" rx="14.794" ry="2.741"/><ellipse cx="15.844" cy="16.135" rx="15.044" ry="15.33"/><ellipse fill="transparent" cx="15.495" cy="1.115" rx="1.095" ry="1.115"/><ellipse fill="transparent" cx="15.495" cy="31.701" rx="1.095" ry="1.115"/><ellipse fill="transparent" cx="1.095" cy="16.408" rx="1.095" ry="1.115"/><ellipse fill="transparent" cx="30.695" cy="16.408" rx="1.095" ry="1.115"/><ellipse fill="transparent" cx="25.895" cy="26.872" rx="1.095" ry="1.115"/><ellipse fill="transparent" cx="5.095" cy="5.14" rx="1.095" ry="1.115"/><ellipse fill="transparent" cx="25.895" cy="5.14" rx="1.095" ry="1.115"/><ellipse fill="transparent" cx="5.095" cy="26.872" rx="1.095" ry="1.115"/><ellipse fill="transparent" cx="15.378" cy="16.32" rx="3.378" ry="3.442"/></g></g></svg>