<?xml version="1.0" encoding="UTF-8"?>
<svg style="background:transparent" version="1.1" viewBox="0 0 300 80" xmlns="http://www.w3.org/2000/svg" xmlns:xlink="http://www.w3.org/1999/xlink">
<title>Лого</title>
<desc>Created with Sketch.</desc>
<defs>
<rect id="b" width="195" height="1" rx=".5"/>
<linearGradient id="f" x2="92.784%" y2="91.874%">
<stop stop-color="#0A006C" offset="0"/>
<stop stop-color="#6FABF8" offset="1"/>
</linearGradient>
<path id="a" d="m31.4 35.8h-7.25l-2.1-6.3h-12.65l-2.15 6.3h-7.25l12.95-35.6h5.45l13 35.6zm-11.2-12.15l-4.35-12.95-4.5 12.95h8.85zm35.85 12.15h-6.35v-2.45c-1.6333 1.8333-3.7833 2.75-6.45 2.75-2.7333 0-4.85-0.78333-6.35-2.35-1.1333-1.1667-1.8667-2.6167-2.2-4.35s-0.5-3.95-0.5-6.65c0-2.6667 0.16666-4.8667 0.5-6.6s1.0667-3.1833 2.2-4.35c1.5-1.5667 3.6-2.35 6.3-2.35 2.6667 0 4.7833 0.86666 6.35 2.6v-11.85h6.5v35.6zm-6.5-13.05c0-2.4333-0.29166-4.2833-0.875-5.55-0.58334-1.2667-1.775-1.9-3.575-1.9-0.93334 0-1.7083 0.18333-2.325 0.55-0.61667 0.36667-1.0667 0.91666-1.35 1.65-0.28333 0.73334-0.475 1.4917-0.575 2.275-0.1 0.78334-0.15 1.775-0.15 2.975s0.05 2.1917 0.15 2.975c0.1 0.78334 0.29167 1.55 0.575 2.3 0.28333 0.75 0.73333 1.3083 1.35 1.675 0.61667 0.36667 1.3917 0.55 2.325 0.55s1.7083-0.18333 2.325-0.55c0.61667-0.36667 1.075-0.91666 1.375-1.65s0.5-1.5083 0.6-2.325c0.1-0.81667 0.15-1.8083 0.15-2.975zm35.15 13.05h-6.35v-2.4c-1.7 1.8-3.8667 2.7-6.5 2.7-2.5667 0-4.6167-0.76666-6.15-2.3-1.7667-1.7667-2.65-4.2333-2.65-7.4v-16.65h6.5v15.75c0 1.6333 0.425 2.8333 1.275 3.6 0.85 0.76667 1.8583 1.15 3.025 1.15 1.2 0 2.225-0.38333 3.075-1.15 0.85-0.76667 1.275-1.9667 1.275-3.6v-15.75h6.5v26.05zm18.35 0h-3.7c-2.5 0-4.3917-0.73333-5.675-2.2s-1.925-3.2167-1.925-5.25v-28.15h6.5v27.75c0 1.5667 0.76666 2.35 2.3 2.35h2.5v5.5zm24.9 0h-6.35v-2.25c-0.9 0.9-1.825 1.5417-2.775 1.925-0.95 0.38334-2.1583 0.575-3.625 0.575-2.9 0-5.1167-0.76666-6.65-2.3-1.4333-1.5-2.15-3.45-2.15-5.85 0-2.2 0.76666-4.0083 2.3-5.425 1.5333-1.4167 3.7667-2.125 6.7-2.125h6.05v-1.3c0-1.4333-0.38333-2.475-1.15-3.125-0.76667-0.65-2-0.975-3.7-0.975-2.0333 0-3.7 0.74999-5 2.25l-4.1-4.05c1.2667-1.4 2.5917-2.3667 3.975-2.9s3.175-0.8 5.375-0.8c7.4 0 11.1 3.0666 11.1 9.2v17.15zm-6.5-9.6v-1.4h-4.95c-2.5667 0-3.85 0.99999-3.85 3 0 1.9667 1.3167 2.95 3.95 2.95 1.7 0 2.9833-0.41666 3.85-1.25 0.66667-0.56667 1-1.6667 1-3.3zm32.55-14.3l-4.9 4.95c-1.0333-1.0333-2.1833-1.55-3.45-1.55-1.1 0-2.075 0.41666-2.925 1.25s-1.275 2.0167-1.275 3.55v15.7h-6.5v-26.05h6.35v2.5c0.66667-0.8 1.5917-1.4667 2.775-2s2.4417-0.8 3.775-0.8c2.4667 0 4.5167 0.81666 6.15 2.45zm10.2 23.9h-6.5v-25.3h6.5v25.3zm0.05-30.5h-6.65v-5.3h6.65v5.3zm26.9 30.5h-6.35v-2.25c-0.9 0.9-1.825 1.5417-2.775 1.925-0.95 0.38334-2.1583 0.575-3.625 0.575-2.9 0-5.1167-0.76666-6.65-2.3-1.4333-1.5-2.15-3.45-2.15-5.85 0-2.2 0.76666-4.0083 2.3-5.425 1.5333-1.4167 3.7667-2.125 6.7-2.125h6.05v-1.3c0-1.4333-0.38333-2.475-1.15-3.125s-2-0.975-3.7-0.975c-2.0333 0-3.7 0.74999-5 2.25l-4.1-4.05c1.2667-1.4 2.5917-2.3667 3.975-2.9s3.175-0.8 5.375-0.8c7.4 0 11.1 3.0666 11.1 9.2v17.15zm-6.5-9.6v-1.4h-4.95c-2.5667 0-3.85 0.99999-3.85 3 0 1.9667 1.3167 2.95 3.95 2.95 1.7 0 2.9833-0.41666 3.85-1.25 0.66667-0.56667 1-1.6667 1-3.3z"/>
<linearGradient id="e" x2="99.653%" y2="98.676%">
<stop stop-color="#0A006C" offset="0"/>
<stop stop-color="#6FABF8" offset="1"/>
</linearGradient>
</defs>
<g fill="none" fill-rule="evenodd">
<g transform="translate(21 22)">
<g transform="translate(229 4)" stroke="#6FACF8" stroke-width=".616">
<ellipse transform="translate(15.524 16.494) rotate(90) translate(-15.524 -16.494)" cx="15.524" cy="16.494" rx="14.794" ry="2.7409"/>
<ellipse transform="translate(15.594 16.424) rotate(180) translate(-15.594 -16.424)" cx="15.594" cy="16.424" rx="14.794" ry="2.7409"/>
<ellipse transform="translate(15.587 16.487) rotate(135) translate(-15.587 -16.487)" cx="15.587" cy="16.487" rx="14.794" ry="2.7409"/>
<ellipse transform="translate(15.587 16.487) rotate(45) translate(-15.587 -16.487)" cx="15.587" cy="16.487" rx="14.794" ry="2.7409"/>
<ellipse cx="15.844" cy="16.135" rx="15.044" ry="15.33"/>
<ellipse cx="15.495" cy="1.1155" rx="1.0947" ry="1.1155" fill="transparent"/>
<ellipse cx="15.495" cy="31.701" rx="1.0947" ry="1.1155" fill="transparent"/>
<ellipse cx="1.0947" cy="16.408" rx="1.0947" ry="1.1155" fill="transparent"/>
<ellipse cx="30.695" cy="16.408" rx="1.0947" ry="1.1155" fill="transparent"/>
<ellipse cx="25.895" cy="26.872" rx="1.0947" ry="1.1155" fill="transparent"/>
<ellipse cx="5.0947" cy="5.1399" rx="1.0947" ry="1.1155" fill="transparent"/>
<ellipse cx="25.895" cy="5.1399" rx="1.0947" ry="1.1155" fill="transparent"/>
<ellipse cx="5.0947" cy="26.872" rx="1.0947" ry="1.1155" fill="transparent"/>
<ellipse cx="15.378" cy="16.32" rx="3.3779" ry="3.4421" fill="transparent"/>
</g>
<g transform="translate(33 20)">
<mask id="d" fill="white">
<use xlink:href="#b"/>
</mask>
<use fill="#D8D8D8" xlink:href="#b"/>
<rect x="-3" y="-18" width="198" height="52" fill="url(#f)" mask="url(#d)"/>
</g>
<g transform="translate(33)">
<mask id="c" fill="white">
<use xlink:href="#a"/>
</mask>
<use fill="#000000" xlink:href="#a"/>
<rect x="1" y="-6" width="191" height="48" fill="url(#e)" mask="url(#c)"/>
</g>
<g transform="translate(0 4)" stroke="#120D77" stroke-width=".616">
<ellipse transform="translate(15.524 16.494) rotate(90) translate(-15.524 -16.494)" cx="15.524" cy="16.494" rx="14.794" ry="2.7409"/>
<ellipse transform="translate(15.594 16.424) rotate(180) translate(-15.594 -16.424)" cx="15.594" cy="16.424" rx="14.794" ry="2.7409"/>
<ellipse transform="translate(15.587 16.487) rotate(135) translate(-15.587 -16.487)" cx="15.587" cy="16.487" rx="14.794" ry="2.7409"/>
<ellipse transform="translate(15.587 16.487) rotate(45) translate(-15.587 -16.487)" cx="15.587" cy="16.487" rx="14.794" ry="2.7409"/>
<ellipse cx="15.844" cy="16.135" rx="15.044" ry="15.33"/>
<ellipse cx="15.495" cy="1.1155" rx="1.0947" ry="1.1155" fill="transparent"/>
<ellipse cx="15.495" cy="31.701" rx="1.0947" ry="1.1155" fill="transparent"/>
<ellipse cx="1.0947" cy="16.408" rx="1.0947" ry="1.1155" fill="transparent"/>
<ellipse cx="30.695" cy="16.408" rx="1.0947" ry="1.1155" fill="transparent"/>
<ellipse cx="25.895" cy="26.872" rx="1.0947" ry="1.1155" fill="transparent"/>
<ellipse cx="5.0947" cy="5.1399" rx="1.0947" ry="1.1155" fill="transparent"/>
<ellipse cx="25.895" cy="5.1399" rx="1.0947" ry="1.1155" fill="transparent"/>
<ellipse cx="5.0947" cy="26.872" rx="1.0947" ry="1.1155" fill="transparent"/>
<ellipse cx="15.378" cy="16.32" rx="3.3779" ry="3.4421" fill="transparent"/>
</g>
</g>
</g>
</svg>
