<svg width="430" height="430" xmlns="http://www.w3.org/2000/svg" style="background:0 0"><g stroke="#74B4FF" stroke-width=".5" fill="none" fill-rule="evenodd"><g transform="rotate(-68 170.078 63.995)"><ellipse transform="rotate(90 46.973 48.174)" cx="46.973" cy="48.174" rx="43.737" ry="8.045"/><ellipse transform="rotate(-180 46.973 48.174)" cx="46.973" cy="48.174" rx="43.737" ry="8.045"/><ellipse transform="rotate(135 46.973 48.174)" cx="46.973" cy="48.174" rx="43.737" ry="8.045"/><ellipse transform="rotate(45 46.973 48.174)" cx="46.973" cy="48.174" rx="43.737" ry="8.045"/><ellipse cx="47.066" cy="48.174" rx="44.476" ry="44.994"/><ellipse fill="transparent" cx="47.066" cy="3.274" rx="3.236" ry="3.274"/><ellipse fill="transparent" cx="47.066" cy="93.075" rx="3.236" ry="3.274"/><ellipse fill="transparent" cx="3.236" cy="48.174" rx="3.236" ry="3.274"/><ellipse fill="transparent" cx="90.71" cy="48.174" rx="3.236" ry="3.274"/><ellipse fill="transparent" cx="77.949" cy="79.605" rx="3.236" ry="3.274"/><ellipse fill="transparent" cx="15.627" cy="16.183" rx="3.236" ry="3.274"/><ellipse fill="transparent" cx="77.949" cy="16.183" rx="3.236" ry="3.274"/><ellipse fill="transparent" cx="15.627" cy="79.605" rx="3.236" ry="3.274"/><ellipse fill="transparent" cx="46.973" cy="48.268" rx="9.986" ry="10.103"/></g><g transform="rotate(-68 198.31 -77.036)"><ellipse transform="rotate(90 46.973 48.174)" cx="46.973" cy="48.174" rx="43.737" ry="8.045"/><ellipse transform="rotate(-180 46.973 48.174)" cx="46.973" cy="48.174" rx="43.737" ry="8.045"/><ellipse transform="rotate(135 46.973 48.174)" cx="46.973" cy="48.174" rx="43.737" ry="8.045"/><ellipse transform="rotate(45 46.973 48.174)" cx="46.973" cy="48.174" rx="43.737" ry="8.045"/><ellipse cx="47.066" cy="48.174" rx="44.476" ry="44.994"/><ellipse fill="transparent" cx="47.066" cy="3.274" rx="3.236" ry="3.274"/><ellipse fill="transparent" cx="47.066" cy="93.075" rx="3.236" ry="3.274"/><ellipse fill="transparent" cx="3.236" cy="48.174" rx="3.236" ry="3.274"/><ellipse fill="transparent" cx="90.71" cy="48.174" rx="3.236" ry="3.274"/><ellipse fill="transparent" cx="77.949" cy="79.605" rx="3.236" ry="3.274"/><ellipse fill="transparent" cx="15.627" cy="16.183" rx="3.236" ry="3.274"/><ellipse fill="transparent" cx="77.949" cy="16.183" rx="3.236" ry="3.274"/><ellipse fill="transparent" cx="15.627" cy="79.605" rx="3.236" ry="3.274"/><ellipse fill="transparent" cx="46.973" cy="48.268" rx="9.986" ry="10.103"/></g><g transform="rotate(-68 339.646 -50.38)"><ellipse transform="rotate(90 46.973 48.174)" cx="46.973" cy="48.174" rx="43.737" ry="8.045"/><ellipse transform="rotate(-180 46.973 48.174)" cx="46.973" cy="48.174" rx="43.737" ry="8.045"/><ellipse transform="rotate(135 46.973 48.174)" cx="46.973" cy="48.174" rx="43.737" ry="8.045"/><ellipse transform="rotate(45 46.973 48.174)" cx="46.973" cy="48.174" rx="43.737" ry="8.045"/><ellipse cx="47.066" cy="48.174" rx="44.476" ry="44.994"/><ellipse fill="transparent" cx="47.066" cy="3.274" rx="3.236" ry="3.274"/><ellipse fill="transparent" cx="47.066" cy="93.075" rx="3.236" ry="3.274"/><ellipse fill="transparent" cx="3.236" cy="48.174" rx="3.236" ry="3.274"/><ellipse fill="transparent" cx="90.71" cy="48.174" rx="3.236" ry="3.274"/><ellipse fill="transparent" cx="77.949" cy="79.605" rx="3.236" ry="3.274"/><ellipse fill="transparent" cx="15.627" cy="16.183" rx="3.236" ry="3.274"/><ellipse fill="transparent" cx="77.949" cy="16.183" rx="3.236" ry="3.274"/><ellipse fill="transparent" cx="15.627" cy="79.605" rx="3.236" ry="3.274"/><ellipse fill="transparent" cx="46.973" cy="48.268" rx="9.986" ry="10.103"/></g><path d="M160.305 150.49l44.616-18.788M279.431 162.624l19.043 44.508" stroke-linecap="round"/><g><g transform="scale(-1 1) rotate(68 -264.614 21.307)"><ellipse transform="rotate(90 46.867 48.016)" cx="46.867" cy="48.016" rx="43.638" ry="8.018"/><ellipse transform="rotate(-180 46.867 48.016)" cx="46.867" cy="48.016" rx="43.638" ry="8.018"/><ellipse transform="rotate(135 46.867 48.016)" cx="46.867" cy="48.016" rx="43.638" ry="8.018"/><ellipse transform="rotate(45 46.867 48.016)" cx="46.867" cy="48.016" rx="43.638" ry="8.018"/><ellipse cx="46.959" cy="48.016" rx="44.376" ry="44.846"/><ellipse fill="transparent" cx="46.959" cy="3.263" rx="3.229" ry="3.263"/><ellipse fill="transparent" cx="46.959" cy="92.768" rx="3.229" ry="3.263"/><ellipse fill="transparent" cx="3.229" cy="48.016" rx="3.229" ry="3.263"/><ellipse fill="transparent" cx="90.504" cy="48.016" rx="3.229" ry="3.263"/><ellipse fill="transparent" cx="77.773" cy="79.343" rx="3.229" ry="3.263"/><ellipse fill="transparent" cx="15.591" cy="16.13" rx="3.229" ry="3.263"/><ellipse fill="transparent" cx="77.773" cy="16.13" rx="3.229" ry="3.263"/><ellipse fill="transparent" cx="15.591" cy="79.343" rx="3.229" ry="3.263"/><ellipse fill="transparent" cx="46.867" cy="48.109" rx="9.964" ry="10.069"/></g><path d="M130.792 223.703l18.967 44.394M224.59 297.515l44.483-18.759" stroke-linecap="round"/></g></g></svg>